<?xml version="1.0" encoding="utf-8"?>
<!-- Generator: Adobe Illustrator 16.0.2, SVG Export Plug-In . SVG Version: 6.00 Build 0)  -->
<!DOCTYPE svg PUBLIC "-//W3C//DTD SVG 1.1//EN" "http://www.w3.org/Graphics/SVG/1.1/DTD/svg11.dtd">
<svg version="1.1" id="Layer_1" xmlns="http://www.w3.org/2000/svg" xmlns:xlink="http://www.w3.org/1999/xlink" x="0px" y="0px"
	 width="160px" height="160px" viewBox="0 0 160 160" enable-background="new 0 0 160 160" xml:space="preserve">
<g>
	<path fill="#FFFFFF" d="M158,82h-44v-4h44V82z M46,78H2v4h44V78z M82,2h-4v44h4V2z"/>
	<g opacity="0.1">
		<path d="M82,2v44h-4V2H82 M158,78v4h-44v-4H158 M46,78v4H2v-4H46 M83,1h-1h-4h-1v1v44v1h1h4h1v-1V2V1L83,1z M159,77h-1h-44h-1v1v4
			v1h1h44h1v-1v-4V77L159,77z M47,77h-1H2H1v1v4v1h1h44h1v-1v-4V77L47,77z"/>
	</g>
</g>
</svg>
