<?xml version="1.0" encoding="utf-8"?>
<!-- Generator: Adobe Illustrator 16.0.2, SVG Export Plug-In . SVG Version: 6.00 Build 0)  -->
<!DOCTYPE svg PUBLIC "-//W3C//DTD SVG 1.1//EN" "http://www.w3.org/Graphics/SVG/1.1/DTD/svg11.dtd">
<svg version="1.1" id="Layer_1" xmlns="http://www.w3.org/2000/svg" xmlns:xlink="http://www.w3.org/1999/xlink" x="0px" y="0px"
	 width="64px" height="64px" viewBox="0 0 64 64" enable-background="new 0 0 64 64" xml:space="preserve">
<g>
	<path fill="#FFFFFF" d="M26,34H10v-4h16V34z M54,30H38v4h16V30z M34,38h-4v16h4V38z M34,10h-4v16h4V10z"/>
	<g opacity="0.1">
		<path d="M34,10v16h-4V10H34 M54,30v4H38v-4H54 M26,30v4H10v-4H26 M34,38v16h-4V38H34 M35,9h-1h-4h-1v1v16v1h1h4h1v-1V10V9L35,9z
			 M55,29h-1H38h-1v1v4v1h1h16h1v-1v-4V29L55,29z M27,29h-1H10H9v1v4v1h1h16h1v-1v-4V29L27,29z M35,37h-1h-4h-1v1v16v1h1h4h1v-1V38
			V37L35,37z"/>
	</g>
</g>
</svg>
