<?xml version="1.0" encoding="utf-8"?>
<!-- Generator: Adobe Illustrator 16.0.2, SVG Export Plug-In . SVG Version: 6.00 Build 0)  -->
<!DOCTYPE svg PUBLIC "-//W3C//DTD SVG 1.1//EN" "http://www.w3.org/Graphics/SVG/1.1/DTD/svg11.dtd">
<svg version="1.1" id="Layer_1" xmlns="http://www.w3.org/2000/svg" xmlns:xlink="http://www.w3.org/1999/xlink" x="0px" y="0px"
	 width="320px" height="32px" viewBox="0 0 320 32" enable-background="new 0 0 320 32" xml:space="preserve">
<g>
	<path fill="#FFFFFF" d="M182,14h-16v4h16V14z"/>
	<g opacity="0.15">
		<path d="M182,14v4h-16v-4H182 M183,13h-1h-16h-1v1v4v1h1h16h1v-1v-4V13L183,13z"/>
	</g>
</g>
<g>
	<path fill="#FFFFFF" d="M210,14h-16v4h16V14z"/>
	<g opacity="0.15">
		<path d="M210,14v4h-16v-4H210 M211,13h-1h-16h-1v1v4v1h1h16h1v-1v-4V13L211,13z"/>
	</g>
</g>
<g>
	<path fill="#FFFFFF" d="M154,14h-16v4h16V14z"/>
	<g opacity="0.15">
		<path d="M154,14v4h-16v-4H154 M155,13h-1h-16h-1v1v4v1h1h16h1v-1v-4V13L155,13z"/>
	</g>
</g>
<g>
	<path fill="#FFFFFF" d="M238,14h-16v4h16V14z"/>
	<g opacity="0.15">
		<path d="M238,14v4h-16v-4H238 M239,13h-1h-16h-1v1v4v1h1h16h1v-1v-4V13L239,13z"/>
	</g>
</g>
<g>
	<path fill="#FFFFFF" d="M266,14h-16v4h16V14z"/>
	<g opacity="0.15">
		<path d="M266,14v4h-16v-4H266 M267,13h-1h-16h-1v1v4v1h1h16h1v-1v-4V13L267,13z"/>
	</g>
</g>
<g>
	<path fill="#FFFFFF" d="M294,14h-16v4h16V14z"/>
	<g opacity="0.15">
		<path d="M294,14v4h-16v-4H294 M295,13h-1h-16h-1v1v4v1h1h16h1v-1v-4V13L295,13z"/>
	</g>
</g>
<g>
	<path fill="#FFFFFF" d="M42,14H26v4h16V14z"/>
	<g opacity="0.15">
		<path d="M42,14v4H26v-4H42 M43,13h-1H26h-1v1v4v1h1h16h1v-1v-4V13L43,13z"/>
	</g>
</g>
<g>
	<path fill="#FFFFFF" d="M70,14H54v4h16V14z"/>
	<g opacity="0.15">
		<path d="M70,14v4H54v-4H70 M71,13h-1H54h-1v1v4v1h1h16h1v-1v-4V13L71,13z"/>
	</g>
</g>
<g>
	<path fill="#FFFFFF" d="M98,14H82v4h16V14z"/>
	<g opacity="0.15">
		<path d="M98,14v4H82v-4H98 M99,13h-1H82h-1v1v4v1h1h16h1v-1v-4V13L99,13z"/>
	</g>
</g>
<g>
	<path fill="#FFFFFF" d="M126,14h-16v4h16V14z"/>
	<g opacity="0.15">
		<path d="M126,14v4h-16v-4H126 M127,13h-1h-16h-1v1v4v1h1h16h1v-1v-4V13L127,13z"/>
	</g>
</g>
</svg>
